<mxfile host="app.diagrams.net" modified="2022-10-16T01:58:59.088Z" agent="5.0 (Windows NT 10.0; Win64; x64) AppleWebKit/537.36 (KHTML, like Gecko) Chrome/106.0.0.0 Safari/537.36" etag="7HTBEqNlPZY19RY7apHK" version="20.4.1" type="github">
  <diagram id="b6acdepvqn-tA0IxzFjr" name="Page-1">
    <mxGraphModel dx="1297" dy="689" grid="1" gridSize="10" guides="1" tooltips="1" connect="1" arrows="1" fold="1" page="1" pageScale="1" pageWidth="850" pageHeight="1100" math="0" shadow="0">
      <root>
        <mxCell id="0" />
        <mxCell id="1" parent="0" />
        <mxCell id="66eMBhZX9WvoQs9t0sJY-1" value="Actor" style="shape=umlActor;verticalLabelPosition=bottom;verticalAlign=top;html=1;outlineConnect=0;" vertex="1" parent="1">
          <mxGeometry x="30" y="150" width="100" height="200" as="geometry" />
        </mxCell>
        <mxCell id="66eMBhZX9WvoQs9t0sJY-2" value="Actor - User" style="text;html=1;strokeColor=none;fillColor=none;align=center;verticalAlign=middle;whiteSpace=wrap;rounded=0;" vertex="1" parent="1">
          <mxGeometry x="35" y="30" width="90" height="30" as="geometry" />
        </mxCell>
        <mxCell id="66eMBhZX9WvoQs9t0sJY-3" value="Email GUI" style="rounded=0;whiteSpace=wrap;html=1;" vertex="1" parent="1">
          <mxGeometry x="190" y="30" width="120" height="50" as="geometry" />
        </mxCell>
        <mxCell id="66eMBhZX9WvoQs9t0sJY-4" value="Decryption controller" style="rounded=0;whiteSpace=wrap;html=1;" vertex="1" parent="1">
          <mxGeometry x="380" y="30" width="120" height="50" as="geometry" />
        </mxCell>
        <mxCell id="66eMBhZX9WvoQs9t0sJY-5" value="Public Key Database" style="rounded=0;whiteSpace=wrap;html=1;" vertex="1" parent="1">
          <mxGeometry x="570" y="30" width="110" height="50" as="geometry" />
        </mxCell>
        <mxCell id="66eMBhZX9WvoQs9t0sJY-7" value="" style="endArrow=none;dashed=1;html=1;dashPattern=1 3;strokeWidth=2;rounded=0;entryX=0.5;entryY=1;entryDx=0;entryDy=0;" edge="1" parent="1" target="66eMBhZX9WvoQs9t0sJY-3">
          <mxGeometry width="50" height="50" relative="1" as="geometry">
            <mxPoint x="250" y="700" as="sourcePoint" />
            <mxPoint x="450" y="320" as="targetPoint" />
          </mxGeometry>
        </mxCell>
        <mxCell id="66eMBhZX9WvoQs9t0sJY-6" value="" style="rounded=0;whiteSpace=wrap;html=1;" vertex="1" parent="1">
          <mxGeometry x="235" y="110" width="30" height="490" as="geometry" />
        </mxCell>
        <mxCell id="66eMBhZX9WvoQs9t0sJY-9" value="" style="endArrow=none;dashed=1;html=1;dashPattern=1 3;strokeWidth=2;rounded=0;entryX=0.5;entryY=1;entryDx=0;entryDy=0;" edge="1" parent="1">
          <mxGeometry width="50" height="50" relative="1" as="geometry">
            <mxPoint x="440" y="700" as="sourcePoint" />
            <mxPoint x="440" y="80" as="targetPoint" />
          </mxGeometry>
        </mxCell>
        <mxCell id="66eMBhZX9WvoQs9t0sJY-10" value="" style="rounded=0;whiteSpace=wrap;html=1;" vertex="1" parent="1">
          <mxGeometry x="425" y="110" width="30" height="490" as="geometry" />
        </mxCell>
        <mxCell id="66eMBhZX9WvoQs9t0sJY-11" value="" style="endArrow=none;dashed=1;html=1;dashPattern=1 3;strokeWidth=2;rounded=0;entryX=0.5;entryY=1;entryDx=0;entryDy=0;" edge="1" parent="1">
          <mxGeometry width="50" height="50" relative="1" as="geometry">
            <mxPoint x="625" y="700" as="sourcePoint" />
            <mxPoint x="625" y="80" as="targetPoint" />
          </mxGeometry>
        </mxCell>
        <mxCell id="66eMBhZX9WvoQs9t0sJY-12" value="" style="rounded=0;whiteSpace=wrap;html=1;" vertex="1" parent="1">
          <mxGeometry x="610" y="110" width="30" height="490" as="geometry" />
        </mxCell>
      </root>
    </mxGraphModel>
  </diagram>
</mxfile>
